<mxfile host="app.diagrams.net" agent="Mozilla/5.0 (Windows NT 10.0; Win64; x64) AppleWebKit/537.36 (KHTML, like Gecko) Chrome/134.0.0.0 Safari/537.36" version="26.2.5">
  <diagram name="Page-1" id="DJ615qL4EOfn3bgbmQdU">
    <mxGraphModel dx="1044" dy="608" grid="1" gridSize="10" guides="1" tooltips="1" connect="1" arrows="1" fold="1" page="1" pageScale="1" pageWidth="2339" pageHeight="3300" math="0" shadow="0">
      <root>
        <mxCell id="0" />
        <mxCell id="1" parent="0" />
        <mxCell id="75baze3KxA4kjLgVZzr1-21" style="edgeStyle=orthogonalEdgeStyle;rounded=0;orthogonalLoop=1;jettySize=auto;html=1;exitX=0;exitY=0.5;exitDx=0;exitDy=0;entryX=0.5;entryY=0;entryDx=0;entryDy=0;" edge="1" parent="1" source="75baze3KxA4kjLgVZzr1-1" target="75baze3KxA4kjLgVZzr1-18">
          <mxGeometry relative="1" as="geometry" />
        </mxCell>
        <mxCell id="75baze3KxA4kjLgVZzr1-22" style="edgeStyle=orthogonalEdgeStyle;rounded=0;orthogonalLoop=1;jettySize=auto;html=1;exitX=1;exitY=0.5;exitDx=0;exitDy=0;" edge="1" parent="1" source="75baze3KxA4kjLgVZzr1-1" target="75baze3KxA4kjLgVZzr1-20">
          <mxGeometry relative="1" as="geometry" />
        </mxCell>
        <mxCell id="75baze3KxA4kjLgVZzr1-1" value="Game Object" style="rounded=0;whiteSpace=wrap;html=1;" vertex="1" parent="1">
          <mxGeometry x="1100" y="20" width="120" height="60" as="geometry" />
        </mxCell>
        <mxCell id="75baze3KxA4kjLgVZzr1-30" style="edgeStyle=orthogonalEdgeStyle;rounded=0;orthogonalLoop=1;jettySize=auto;html=1;exitX=0.5;exitY=0;exitDx=0;exitDy=0;entryX=0;entryY=0.5;entryDx=0;entryDy=0;" edge="1" parent="1" source="75baze3KxA4kjLgVZzr1-17" target="75baze3KxA4kjLgVZzr1-20">
          <mxGeometry relative="1" as="geometry" />
        </mxCell>
        <mxCell id="75baze3KxA4kjLgVZzr1-31" style="edgeStyle=orthogonalEdgeStyle;rounded=0;orthogonalLoop=1;jettySize=auto;html=1;exitX=0.5;exitY=0;exitDx=0;exitDy=0;entryX=1;entryY=0.5;entryDx=0;entryDy=0;" edge="1" parent="1" source="75baze3KxA4kjLgVZzr1-17" target="75baze3KxA4kjLgVZzr1-18">
          <mxGeometry relative="1" as="geometry" />
        </mxCell>
        <mxCell id="75baze3KxA4kjLgVZzr1-17" value="SpriteCreator" style="rounded=0;whiteSpace=wrap;html=1;" vertex="1" parent="1">
          <mxGeometry x="1100" y="200" width="120" height="60" as="geometry" />
        </mxCell>
        <mxCell id="75baze3KxA4kjLgVZzr1-40" style="edgeStyle=orthogonalEdgeStyle;rounded=0;orthogonalLoop=1;jettySize=auto;html=1;exitX=0.5;exitY=1;exitDx=0;exitDy=0;" edge="1" parent="1" source="75baze3KxA4kjLgVZzr1-18" target="75baze3KxA4kjLgVZzr1-38">
          <mxGeometry relative="1" as="geometry" />
        </mxCell>
        <mxCell id="75baze3KxA4kjLgVZzr1-41" style="edgeStyle=orthogonalEdgeStyle;rounded=0;orthogonalLoop=1;jettySize=auto;html=1;exitX=0.5;exitY=1;exitDx=0;exitDy=0;entryX=0.5;entryY=0;entryDx=0;entryDy=0;" edge="1" parent="1" source="75baze3KxA4kjLgVZzr1-18" target="75baze3KxA4kjLgVZzr1-39">
          <mxGeometry relative="1" as="geometry">
            <Array as="points">
              <mxPoint x="1020" y="280" />
              <mxPoint x="740" y="280" />
            </Array>
          </mxGeometry>
        </mxCell>
        <mxCell id="75baze3KxA4kjLgVZzr1-18" value="Dynamic Object" style="rounded=0;whiteSpace=wrap;html=1;" vertex="1" parent="1">
          <mxGeometry x="960" y="110" width="120" height="60" as="geometry" />
        </mxCell>
        <mxCell id="75baze3KxA4kjLgVZzr1-53" style="edgeStyle=orthogonalEdgeStyle;rounded=0;orthogonalLoop=1;jettySize=auto;html=1;exitX=0.5;exitY=1;exitDx=0;exitDy=0;entryX=0.5;entryY=0;entryDx=0;entryDy=0;" edge="1" parent="1" source="75baze3KxA4kjLgVZzr1-20" target="75baze3KxA4kjLgVZzr1-52">
          <mxGeometry relative="1" as="geometry" />
        </mxCell>
        <mxCell id="75baze3KxA4kjLgVZzr1-20" value="Static" style="rounded=0;whiteSpace=wrap;html=1;" vertex="1" parent="1">
          <mxGeometry x="1240" y="110" width="120" height="60" as="geometry" />
        </mxCell>
        <mxCell id="75baze3KxA4kjLgVZzr1-26" value="&lt;font style=&quot;font-size: 8px;&quot;&gt;Is A&lt;/font&gt;" style="text;html=1;align=center;verticalAlign=middle;resizable=0;points=[];autosize=1;strokeColor=none;fillColor=none;" vertex="1" parent="1">
          <mxGeometry x="1020" y="20" width="40" height="30" as="geometry" />
        </mxCell>
        <mxCell id="75baze3KxA4kjLgVZzr1-27" value="&lt;font style=&quot;font-size: 8px;&quot;&gt;Is A&lt;/font&gt;" style="text;html=1;align=center;verticalAlign=middle;resizable=0;points=[];autosize=1;strokeColor=none;fillColor=none;" vertex="1" parent="1">
          <mxGeometry x="1260" y="20" width="40" height="30" as="geometry" />
        </mxCell>
        <mxCell id="75baze3KxA4kjLgVZzr1-28" value="&lt;span style=&quot;font-size: 8px;&quot;&gt;Has A&lt;/span&gt;" style="text;html=1;align=center;verticalAlign=middle;resizable=0;points=[];autosize=1;strokeColor=none;fillColor=none;" vertex="1" parent="1">
          <mxGeometry x="1200" y="140" width="40" height="30" as="geometry" />
        </mxCell>
        <mxCell id="75baze3KxA4kjLgVZzr1-29" value="&lt;font style=&quot;font-size: 8px;&quot;&gt;Has A&lt;/font&gt;" style="text;html=1;align=center;verticalAlign=middle;resizable=0;points=[];autosize=1;strokeColor=none;fillColor=none;" vertex="1" parent="1">
          <mxGeometry x="1080" y="140" width="40" height="30" as="geometry" />
        </mxCell>
        <mxCell id="75baze3KxA4kjLgVZzr1-34" style="edgeStyle=orthogonalEdgeStyle;rounded=0;orthogonalLoop=1;jettySize=auto;html=1;exitX=1;exitY=0.5;exitDx=0;exitDy=0;entryX=0;entryY=0.5;entryDx=0;entryDy=0;" edge="1" parent="1" source="75baze3KxA4kjLgVZzr1-32" target="75baze3KxA4kjLgVZzr1-18">
          <mxGeometry relative="1" as="geometry" />
        </mxCell>
        <mxCell id="75baze3KxA4kjLgVZzr1-32" value="Animation" style="rounded=0;whiteSpace=wrap;html=1;" vertex="1" parent="1">
          <mxGeometry x="800" y="110" width="120" height="60" as="geometry" />
        </mxCell>
        <mxCell id="75baze3KxA4kjLgVZzr1-35" style="edgeStyle=orthogonalEdgeStyle;rounded=0;orthogonalLoop=1;jettySize=auto;html=1;exitX=1;exitY=0.5;exitDx=0;exitDy=0;entryX=0;entryY=0.5;entryDx=0;entryDy=0;" edge="1" parent="1" source="75baze3KxA4kjLgVZzr1-33" target="75baze3KxA4kjLgVZzr1-18">
          <mxGeometry relative="1" as="geometry" />
        </mxCell>
        <mxCell id="75baze3KxA4kjLgVZzr1-33" value="Collision" style="rounded=0;whiteSpace=wrap;html=1;" vertex="1" parent="1">
          <mxGeometry x="800" y="200" width="120" height="60" as="geometry" />
        </mxCell>
        <mxCell id="75baze3KxA4kjLgVZzr1-36" value="&lt;font style=&quot;font-size: 8px;&quot;&gt;Has A&lt;/font&gt;" style="text;html=1;align=center;verticalAlign=middle;resizable=0;points=[];autosize=1;strokeColor=none;fillColor=none;" vertex="1" parent="1">
          <mxGeometry x="920" y="110" width="40" height="30" as="geometry" />
        </mxCell>
        <mxCell id="75baze3KxA4kjLgVZzr1-37" value="&lt;font style=&quot;font-size: 8px;&quot;&gt;Has A&lt;/font&gt;" style="text;html=1;align=center;verticalAlign=middle;resizable=0;points=[];autosize=1;strokeColor=none;fillColor=none;" vertex="1" parent="1">
          <mxGeometry x="940" y="200" width="40" height="30" as="geometry" />
        </mxCell>
        <mxCell id="75baze3KxA4kjLgVZzr1-48" style="edgeStyle=orthogonalEdgeStyle;rounded=0;orthogonalLoop=1;jettySize=auto;html=1;exitX=0.5;exitY=1;exitDx=0;exitDy=0;entryX=0.5;entryY=0;entryDx=0;entryDy=0;" edge="1" parent="1" source="75baze3KxA4kjLgVZzr1-38" target="75baze3KxA4kjLgVZzr1-45">
          <mxGeometry relative="1" as="geometry">
            <Array as="points">
              <mxPoint x="1020" y="390" />
              <mxPoint x="940" y="390" />
            </Array>
          </mxGeometry>
        </mxCell>
        <mxCell id="75baze3KxA4kjLgVZzr1-49" style="edgeStyle=orthogonalEdgeStyle;rounded=0;orthogonalLoop=1;jettySize=auto;html=1;exitX=0.5;exitY=1;exitDx=0;exitDy=0;entryX=0.5;entryY=0;entryDx=0;entryDy=0;" edge="1" parent="1" source="75baze3KxA4kjLgVZzr1-38" target="75baze3KxA4kjLgVZzr1-47">
          <mxGeometry relative="1" as="geometry">
            <Array as="points">
              <mxPoint x="1020" y="390" />
              <mxPoint x="1100" y="390" />
            </Array>
          </mxGeometry>
        </mxCell>
        <mxCell id="75baze3KxA4kjLgVZzr1-38" value="NPC" style="rounded=0;whiteSpace=wrap;html=1;" vertex="1" parent="1">
          <mxGeometry x="960" y="320" width="120" height="60" as="geometry" />
        </mxCell>
        <mxCell id="75baze3KxA4kjLgVZzr1-62" style="edgeStyle=orthogonalEdgeStyle;rounded=0;orthogonalLoop=1;jettySize=auto;html=1;exitX=0.5;exitY=1;exitDx=0;exitDy=0;entryX=0.5;entryY=0;entryDx=0;entryDy=0;" edge="1" parent="1" source="75baze3KxA4kjLgVZzr1-39" target="75baze3KxA4kjLgVZzr1-61">
          <mxGeometry relative="1" as="geometry" />
        </mxCell>
        <mxCell id="75baze3KxA4kjLgVZzr1-39" value="Player" style="rounded=0;whiteSpace=wrap;html=1;" vertex="1" parent="1">
          <mxGeometry x="680" y="320" width="120" height="60" as="geometry" />
        </mxCell>
        <mxCell id="75baze3KxA4kjLgVZzr1-42" value="&lt;font style=&quot;font-size: 8px;&quot;&gt;Is A&lt;/font&gt;" style="text;html=1;align=center;verticalAlign=middle;resizable=0;points=[];autosize=1;strokeColor=none;fillColor=none;" vertex="1" parent="1">
          <mxGeometry x="1220" y="290" width="40" height="30" as="geometry" />
        </mxCell>
        <mxCell id="75baze3KxA4kjLgVZzr1-44" value="&lt;font style=&quot;font-size: 8px;&quot;&gt;Is A&lt;/font&gt;" style="text;html=1;align=center;verticalAlign=middle;resizable=0;points=[];autosize=1;strokeColor=none;fillColor=none;" vertex="1" parent="1">
          <mxGeometry x="640" y="500" width="40" height="30" as="geometry" />
        </mxCell>
        <mxCell id="75baze3KxA4kjLgVZzr1-63" style="edgeStyle=orthogonalEdgeStyle;rounded=0;orthogonalLoop=1;jettySize=auto;html=1;exitX=0;exitY=0.5;exitDx=0;exitDy=0;entryX=1;entryY=0.5;entryDx=0;entryDy=0;" edge="1" parent="1" source="75baze3KxA4kjLgVZzr1-45" target="75baze3KxA4kjLgVZzr1-61">
          <mxGeometry relative="1" as="geometry" />
        </mxCell>
        <mxCell id="75baze3KxA4kjLgVZzr1-45" value="Enemy" style="rounded=0;whiteSpace=wrap;html=1;" vertex="1" parent="1">
          <mxGeometry x="880" y="410" width="120" height="60" as="geometry" />
        </mxCell>
        <mxCell id="75baze3KxA4kjLgVZzr1-47" value="Friendly" style="rounded=0;whiteSpace=wrap;html=1;" vertex="1" parent="1">
          <mxGeometry x="1040" y="410" width="120" height="60" as="geometry" />
        </mxCell>
        <mxCell id="75baze3KxA4kjLgVZzr1-50" value="&lt;font style=&quot;font-size: 8px;&quot;&gt;Is A&lt;/font&gt;" style="text;html=1;align=center;verticalAlign=middle;resizable=0;points=[];autosize=1;strokeColor=none;fillColor=none;" vertex="1" parent="1">
          <mxGeometry x="1100" y="380" width="40" height="30" as="geometry" />
        </mxCell>
        <mxCell id="75baze3KxA4kjLgVZzr1-51" value="&lt;font style=&quot;font-size: 8px;&quot;&gt;Is A&lt;/font&gt;" style="text;html=1;align=center;verticalAlign=middle;resizable=0;points=[];autosize=1;strokeColor=none;fillColor=none;" vertex="1" parent="1">
          <mxGeometry x="900" y="380" width="40" height="30" as="geometry" />
        </mxCell>
        <mxCell id="75baze3KxA4kjLgVZzr1-56" style="edgeStyle=orthogonalEdgeStyle;rounded=0;orthogonalLoop=1;jettySize=auto;html=1;exitX=1;exitY=0.5;exitDx=0;exitDy=0;entryX=0.5;entryY=0;entryDx=0;entryDy=0;" edge="1" parent="1" source="75baze3KxA4kjLgVZzr1-52" target="75baze3KxA4kjLgVZzr1-55">
          <mxGeometry relative="1" as="geometry" />
        </mxCell>
        <mxCell id="75baze3KxA4kjLgVZzr1-57" style="edgeStyle=orthogonalEdgeStyle;rounded=0;orthogonalLoop=1;jettySize=auto;html=1;exitX=0;exitY=0.5;exitDx=0;exitDy=0;entryX=0.5;entryY=0;entryDx=0;entryDy=0;" edge="1" parent="1" source="75baze3KxA4kjLgVZzr1-52" target="75baze3KxA4kjLgVZzr1-54">
          <mxGeometry relative="1" as="geometry" />
        </mxCell>
        <mxCell id="75baze3KxA4kjLgVZzr1-52" value="Tile" style="rounded=0;whiteSpace=wrap;html=1;" vertex="1" parent="1">
          <mxGeometry x="1240" y="240" width="120" height="60" as="geometry" />
        </mxCell>
        <mxCell id="75baze3KxA4kjLgVZzr1-54" value="Floor" style="rounded=0;whiteSpace=wrap;html=1;" vertex="1" parent="1">
          <mxGeometry x="1160" y="320" width="120" height="60" as="geometry" />
        </mxCell>
        <mxCell id="75baze3KxA4kjLgVZzr1-73" style="edgeStyle=orthogonalEdgeStyle;rounded=0;orthogonalLoop=1;jettySize=auto;html=1;exitX=0.5;exitY=1;exitDx=0;exitDy=0;entryX=0.5;entryY=0;entryDx=0;entryDy=0;" edge="1" parent="1" source="75baze3KxA4kjLgVZzr1-55" target="75baze3KxA4kjLgVZzr1-72">
          <mxGeometry relative="1" as="geometry">
            <Array as="points">
              <mxPoint x="1380" y="390" />
              <mxPoint x="1300" y="390" />
            </Array>
          </mxGeometry>
        </mxCell>
        <mxCell id="75baze3KxA4kjLgVZzr1-55" value="Wall" style="rounded=0;whiteSpace=wrap;html=1;" vertex="1" parent="1">
          <mxGeometry x="1320" y="320" width="120" height="60" as="geometry" />
        </mxCell>
        <mxCell id="75baze3KxA4kjLgVZzr1-58" value="&lt;font style=&quot;font-size: 8px;&quot;&gt;Is A&lt;/font&gt;" style="text;html=1;align=center;verticalAlign=middle;resizable=0;points=[];autosize=1;strokeColor=none;fillColor=none;" vertex="1" parent="1">
          <mxGeometry x="1300" y="210" width="40" height="30" as="geometry" />
        </mxCell>
        <mxCell id="75baze3KxA4kjLgVZzr1-59" value="&lt;font style=&quot;font-size: 8px;&quot;&gt;Is A&lt;/font&gt;" style="text;html=1;align=center;verticalAlign=middle;resizable=0;points=[];autosize=1;strokeColor=none;fillColor=none;" vertex="1" parent="1">
          <mxGeometry x="1020" y="290" width="40" height="30" as="geometry" />
        </mxCell>
        <mxCell id="75baze3KxA4kjLgVZzr1-60" value="&lt;font style=&quot;font-size: 8px;&quot;&gt;Is A&lt;/font&gt;" style="text;html=1;align=center;verticalAlign=middle;resizable=0;points=[];autosize=1;strokeColor=none;fillColor=none;" vertex="1" parent="1">
          <mxGeometry x="1380" y="290" width="40" height="30" as="geometry" />
        </mxCell>
        <mxCell id="75baze3KxA4kjLgVZzr1-69" style="edgeStyle=orthogonalEdgeStyle;rounded=0;orthogonalLoop=1;jettySize=auto;html=1;exitX=0.5;exitY=1;exitDx=0;exitDy=0;entryX=0.5;entryY=0;entryDx=0;entryDy=0;" edge="1" parent="1" source="75baze3KxA4kjLgVZzr1-61" target="75baze3KxA4kjLgVZzr1-66">
          <mxGeometry relative="1" as="geometry" />
        </mxCell>
        <mxCell id="75baze3KxA4kjLgVZzr1-61" value="Weapon" style="rounded=0;whiteSpace=wrap;html=1;" vertex="1" parent="1">
          <mxGeometry x="680" y="410" width="120" height="60" as="geometry" />
        </mxCell>
        <mxCell id="75baze3KxA4kjLgVZzr1-64" value="&lt;font style=&quot;font-size: 8px;&quot;&gt;Has A&lt;/font&gt;" style="text;html=1;align=center;verticalAlign=middle;resizable=0;points=[];autosize=1;strokeColor=none;fillColor=none;" vertex="1" parent="1">
          <mxGeometry x="740" y="380" width="40" height="30" as="geometry" />
        </mxCell>
        <mxCell id="75baze3KxA4kjLgVZzr1-65" value="&lt;font style=&quot;font-size: 8px;&quot;&gt;Can Have A&lt;/font&gt;" style="text;html=1;align=center;verticalAlign=middle;resizable=0;points=[];autosize=1;strokeColor=none;fillColor=none;" vertex="1" parent="1">
          <mxGeometry x="790" y="410" width="70" height="30" as="geometry" />
        </mxCell>
        <mxCell id="75baze3KxA4kjLgVZzr1-66" value="Projectile" style="rounded=0;whiteSpace=wrap;html=1;" vertex="1" parent="1">
          <mxGeometry x="680" y="500" width="120" height="60" as="geometry" />
        </mxCell>
        <mxCell id="75baze3KxA4kjLgVZzr1-70" style="edgeStyle=orthogonalEdgeStyle;rounded=0;orthogonalLoop=1;jettySize=auto;html=1;exitX=1;exitY=0.5;exitDx=0;exitDy=0;" edge="1" parent="1" source="75baze3KxA4kjLgVZzr1-68" target="75baze3KxA4kjLgVZzr1-66">
          <mxGeometry relative="1" as="geometry" />
        </mxCell>
        <mxCell id="75baze3KxA4kjLgVZzr1-68" value="Boulder" style="rounded=0;whiteSpace=wrap;html=1;" vertex="1" parent="1">
          <mxGeometry x="520" y="500" width="120" height="60" as="geometry" />
        </mxCell>
        <mxCell id="75baze3KxA4kjLgVZzr1-71" value="&lt;font style=&quot;font-size: 8px;&quot;&gt;Has A&lt;/font&gt;" style="text;html=1;align=center;verticalAlign=middle;resizable=0;points=[];autosize=1;strokeColor=none;fillColor=none;" vertex="1" parent="1">
          <mxGeometry x="740" y="470" width="40" height="30" as="geometry" />
        </mxCell>
        <mxCell id="75baze3KxA4kjLgVZzr1-76" style="edgeStyle=orthogonalEdgeStyle;rounded=0;orthogonalLoop=1;jettySize=auto;html=1;exitX=1;exitY=0.5;exitDx=0;exitDy=0;entryX=1;entryY=0.25;entryDx=0;entryDy=0;" edge="1" parent="1" source="75baze3KxA4kjLgVZzr1-72" target="75baze3KxA4kjLgVZzr1-52">
          <mxGeometry relative="1" as="geometry">
            <Array as="points">
              <mxPoint x="1450" y="440" />
              <mxPoint x="1450" y="255" />
            </Array>
          </mxGeometry>
        </mxCell>
        <mxCell id="75baze3KxA4kjLgVZzr1-72" value="Door" style="rounded=0;whiteSpace=wrap;html=1;" vertex="1" parent="1">
          <mxGeometry x="1240" y="410" width="120" height="60" as="geometry" />
        </mxCell>
        <mxCell id="75baze3KxA4kjLgVZzr1-74" value="&lt;font style=&quot;font-size: 8px;&quot;&gt;Has A&lt;/font&gt;" style="text;html=1;align=center;verticalAlign=middle;resizable=0;points=[];autosize=1;strokeColor=none;fillColor=none;" vertex="1" parent="1">
          <mxGeometry x="1260" y="380" width="40" height="30" as="geometry" />
        </mxCell>
        <mxCell id="75baze3KxA4kjLgVZzr1-77" value="&lt;font style=&quot;font-size: 8px;&quot;&gt;Is A&lt;/font&gt;" style="text;html=1;align=center;verticalAlign=middle;resizable=0;points=[];autosize=1;strokeColor=none;fillColor=none;" vertex="1" parent="1">
          <mxGeometry x="1360" y="410" width="40" height="30" as="geometry" />
        </mxCell>
      </root>
    </mxGraphModel>
  </diagram>
</mxfile>
